#!OML:ASF E:\Steps\Project 1\Capture day 1\Session 2\Subject.ASF
:FULLY-SPECIFIED
:DEGREES
303
root 4.39145 17.2411 17.6697 -145.93 2.48896 179.428
lowerback -10.8651 -3.60578 -5.19797
upperback 4.761 -4.17505 1.76398
thorax 11.8527 -2.44728 3.97157
lowerneck -2.71893 1.28892 -1.6791
upperneck 15.149 2.368 1.18188
head 4.9599 1.37549 0.783391
rclavicle 2.18663e-014 -1.51076e-014
rhumerus -52.5279 -21.3843 -66.1715
rradius 57.8577
rwrist -7.60752
rhand -9.06532 -50.713
rfingers 7.12502
rthumb 16.8836 280.001
lclavicle 2.18663e-014 -1.51076e-014
lhumerus -26.3603 -13.1014 77.2527
lradius 40.8751
lwrist 5.59402
lhand -22.2584 -12.8223
lfingers 7.12502
lthumb 4.15929 17.1169
rfemur -54.75 7.36489 16.7838
rtibia 41.3661
rfoot -26.8429 0.303918
rtoes -41.1387
lfemur -42.1966 -5.31772 -18.4413
ltibia 16.05
lfoot -5.34646 4.5939
ltoes -37.6726
304
root 4.37608 17.2264 17.6609 -145.943 2.31864 178.982
lowerback -11.1915 -3.62627 -5.24323
upperback 4.63734 -4.17061 1.61307
thorax 11.8979 -2.44068 3.81902
lowerneck -2.43281 1.22153 -1.50154
upperneck 14.9749 2.27821 1.0515
head 4.86271 1.33546 0.704528
rclavicle -3.57812e-014 1.86858e-014
rhumerus -53.0104 -21.5368 -66.0541
rradius 58.3198
rwrist -7.96158
rhand -8.90588 -51.1217
rfingers 7.12502
rthumb 17.037 279.605
lclavicle -3.57812e-014 1.86858e-014
lhumerus -26.8197 -13.224 77.3502
lradius 40.9021
lwrist 5.72992
lhand -21.9728 -12.7402
lfingers 7.12502
lthumb 4.43501 17.1934
rfemur -54.3659 7.86316 16.6696
rtibia 39.6665
rfoot -26.7182 0.865444
rtoes -40.5798
lfemur -42.1013 -5.23522 -19.178
ltibia 15.8967
lfoot -5.42858 4.11202
ltoes -38.8203
305
root 4.36173 17.2119 17.6516 -146.051 1.97883 178.422
lowerback -11.492 -3.79477 -5.36337
upperback 4.52467 -4.3598 1.52727
thorax 11.9764 -2.53537 3.7359
lowerneck -2.20549 1.132 -1.61037
upperneck 15.0254 2.17201 1.1093
head 4.83951 1.28794 0.733868
rclavicle -2.90226e-014 1.03368e-014
rhumerus -53.5506 -21.3745 -65.962
rradius 58.9438
rwrist -8.30761
rhand -8.76639 -51.6617
rfingers 7.12502
rthumb 17.1713 279.077
lclavicle -2.90226e-014 1.03368e-014
lhumerus -27.3534 -13.2153 77.5322
lradius 40.9038
lwrist 5.85075
lhand -21.9523 -12.3643
lfingers 7.12502
lthumb 4.45481 17.5688
rfemur -53.8163 8.25929 16.378
rtibia 38.0267
rfoot -26.6057 0.426271
rtoes -42.1361
lfemur -41.9214 -5.17309 -20.0638
ltibia 15.7747
lfoot -5.59186 3.32274
ltoes -39.8454
306
root 4.34725 17.1972 17.6445 -146.136 1.66302 177.868
lowerback -11.583 -3.9028 -5.43865
upperback 4.4075 -4.4779 1.39685
thorax 11.9062 -2.58728 3.60544
lowerneck -2.34999 1.03334 -1.56284
upperneck 15.3218 2.05501 1.14166
head 4.95687 1.24207 0.735514
rclavicle 2.44505e-014 -3.18055e-015
rhumerus -53.8694 -21.4357 -65.9245
rradius 59.3391
rwrist -8.56764
rhand -8.96046 -52.2011
rfingers 7.12502
rthumb 16.9845 278.522
lclavicle 2.44505e-014 -3.18055e-015
lhumerus -27.8171 -13.2921 77.6471
lradius 40.9532
lwrist 6.02149
lhand -21.8628 -12.0121
lfingers 7.12502
lthumb 4.54128 17.9192
rfemur -53.3464 8.69132 15.9858
rtibia 36.5729
rfoot -26.3573 -0.353623
rtoes -41.1753
lfemur -41.799 -4.78352 -21.1137
ltibia 15.7384
lfoot -5.65481 2.15042
ltoes -39.2864
307
root 4.30737 17.188 17.5703 -147.653 2.18562 177.863
lowerback -11.3629 -3.59698 -4.92817
upperback 5.07099 -4.08051 1.03197
thorax 12.4094 -2.35012 3.00594
lowerneck -2.57674 0.889325 -1.72752
upperneck 15.4448 1.83705 1.40542
head 5.03186 1.14207 0.837168
rclavicle -4.75095e-014 9.54166e-015
rhumerus -53.6 -21.7723 -66.0974
rradius 59.4623
rwrist -8.90337
rhand -9.39482 -52.7188
rfingers 7.12502
rthumb 16.5664 277.968
lclavicle -4.75095e-014 9.54166e-015
lhumerus -27.8387 -13.3315 77.5751
lradius 40.8576
lwrist 6.03111
lhand -21.7844 -11.7962
lfingers 7.12502
lthumb 4.61694 18.1335
rfemur -50.8987 9.81233 16.0745
rtibia 34.8626
rfoot -26.172 -0.554246
rtoes -40.7089
lfemur -39.1036 -4.62295 -21.5621
ltibia 14.449
lfoot -5.75015 2.55261
ltoes -39.2076
308
root 4.29106 17.1766 17.5776 -147.517 1.64099 177.366
lowerback -11.3983 -3.841 -4.92403
upperback 4.74218 -4.43941 1.1387
thorax 12.1 -2.52026 3.044
lowerneck -2.523 0.705487 -1.94489
upperneck 15.6375 1.64812 1.23283
head 5.08586 1.03397 0.812216
rclavicle 2.66371e-014 -5.56597e-015
rhumerus -53.6499 -21.4984 -65.8644
rradius 59.6268
rwrist -9.33272
rhand -9.59784 -53.3335
rfingers 7.12502
rthumb 16.3709 277.337
lclavicle 2.66371e-014 -5.56597e-015
lhumerus -28.3585 -13.0584 77.9075
lradius 40.5631
lwrist 5.99029
lhand -21.8484 -11.9555
lfingers 7.12502
lthumb 4.55511 17.9756
rfemur -50.7327 9.88996 15.7622
rtibia 33.9348
rfoot -25.9714 -1.19675
rtoes -40.511
lfemur -39.3734 -4.31689 -22.4404
ltibia 14.6324
lfoot -5.64603 1.52942
ltoes -40.0791
309
root 4.27753 17.1589 17.5965 -146.949 0.804469 176.783
lowerback -11.7994 -3.89217 -4.81872
upperback 4.29021 -4.61662 1.1341
thorax 11.8295 -2.61996 2.92352
lowerneck -2.76802 0.761907 -1.33036
upperneck 15.9835 1.79067 0.677891
head 5.24304 1.11223 0.55146
rclavicle -2.14687e-014 -1.82882e-014
rhumerus -54.1416 -22.0335 -65.4684
rradius 59.7932
rwrist -9.71028
rhand -9.85172 -53.6891
rfingers 7.12502
rthumb 16.1264 276.962
lclavicle -2.14687e-014 -1.82882e-014
lhumerus -28.6483 -13.6627 78.1808
lradius 40.27
lwrist 5.95711
lhand -21.8783 -11.9705
lfingers 7.12502
lthumb 4.52629 17.9612
rfemur -51.002 9.43621 15.4349
rtibia 33.0162
rfoot -25.4785 -0.972432
rtoes -37.9246
lfemur -40.2988 -4.1144 -23.3484
ltibia 15.0009
lfoot -5.42693 0.157022
ltoes -40.5518
